# xmcd CD database file
#
# Track frame offsets:
#	150
#	22255
#	43708
#	69467
#	89462
#	109458
#	137463
#	160093
#	184054
#	205669
#
# Disc length: 2914 seconds
#
# Revision: 0
# Processed by: cddbd v1.5.2PL0 Copyright (c) Steve Scherf et al.
# Submitted via: CDex 1.70beta2
#
DISCID=890b600a
DTITLE=Charlotte Illinger - But Beautiful
DYEAR=2017
DGENRE=Jazz
TTITLE0=The Way of Time
TTITLE1=Nica's Dream
TTITLE2=Yo Go to my Head
TTITLE3=At Night
TTITLE4=A House is not a Home
TTITLE5=Furniture
TTITLE6=But Beautiful
TTITLE7=Old Devil Moon
TTITLE8=I Wish You Love
TTITLE9=Manhatten
EXTD=YEAR: 2017
EXTT0=
EXTT1=
EXTT2=
EXTT3=
EXTT4=
EXTT5=
EXTT6=
EXTT7=
EXTT8=
EXTT9=
PLAYORDER=
